Coordinates
version=1
nRows=15
nColumns=26
inDegrees=yes

Units are S.I. units (second, meters, Newtons, ...)
Angles are in degrees.

endheader
time	pelvis_tilt	pelvis_list	pelvis_rotation	pelvis_tx	pelvis_ty	pelvis_tz	hip_flexion_r	hip_adduction_r	hip_rotation_r	knee_angle_r	knee_angle_r_beta	ankle_angle_r	subtalar_angle_r	mtp_angle_r	hip_flexion_l	hip_adduction_l	hip_rotation_l	knee_angle_l	knee_angle_l_beta	ankle_angle_l	subtalar_angle_l	mtp_angle_l	lumbar_extension	lumbar_bending	lumbar_rotation
      0.82500000	      7.29972944	     -2.70377295	      5.32797835	      0.95029264	      1.01152126	      0.19930427	     -2.30361756	      7.09722369	     -7.19660965	      8.99936755	      8.99936755	      1.60943534	      0.00000000	      0.00000000	     12.72899251	    -11.06690471	     -5.35912328	     64.99637146	     64.99637146	      5.37770405	      0.00000000	      0.00000000	    -18.01238440	      4.17123723	      4.10456336
      0.83333333	      7.34523973	     -2.54985473	      5.00831663	      0.95832813	      1.01257097	      0.20027598	     -3.27573522	      7.07711919	     -6.61348516	      8.28540134	      8.28540134	      1.60669579	      0.00000000	      0.00000000	     13.37434597	    -10.83035511	     -5.77020238	     64.08703650	     64.08703650	      5.55972775	      0.00000000	      0.00000000	    -18.10899938	      3.90894215	      4.41215884
      0.84166667	      7.31249943	     -2.34543174	      4.68564949	      0.96608721	      1.01350481	      0.20101506	     -4.09619298	      6.95146595	     -6.01956513	      7.69362400	      7.69362400	      1.65548143	      0.00000000	      0.00000000	     14.05086217	    -10.52148363	     -6.26181397	     62.95354774	     62.95354774	      5.57067144	      0.00000000	      0.00000000	    -18.15771098	      3.61209712	      4.68535054
      0.85000000	      7.36093910	     -2.11914531	      4.36368414	      0.97387506	      1.01445988	      0.20177706	     -5.02447504	      6.80343838	     -5.45271752	      7.05644648	      7.05644648	      1.69818149	      0.00000000	      0.00000000	     14.53041368	    -10.20880182	     -6.90820085	     61.45296004	     61.45296004	      5.46530390	      0.00000000	      0.00000000	    -18.29875174	      3.29175240	      4.91739852
      0.85833333	      7.30447743	     -1.93196949	      4.11971341	      0.98142123	      1.01506414	      0.20230378	     -5.75216845	      6.67303770	     -5.04297762	      6.55069044	      6.55069044	      1.82718567	      0.00000000	      0.00000000	     15.21108733	     -9.92802971	     -7.30067617	     60.18700490	     60.18700490	      5.66718776	      0.00000000	      0.00000000	    -18.33891243	      3.04770189	      5.06484521
      0.86666667	      7.25804043	     -1.82206788	      3.83424178	      0.98895879	      1.01555503	      0.20282031	     -6.47723714	      6.59096280	     -4.56662794	      6.02921082	      6.02921082	      1.80835632	      0.00000000	      0.00000000	     15.82640525	     -9.69757373	     -7.69120478	     58.73277103	     58.73277103	      5.65184619	      0.00000000	      0.00000000	    -18.38662479	      2.88755465	      5.26390649
      0.87500000	      7.23555320	     -1.72793631	      3.57565386	      0.99646045	      1.01582118	      0.20326458	     -7.20313214	      6.51819399	     -4.19719080	      5.57057545	      5.57057545	      1.96410813	      0.00000000	      0.00000000	     16.35565581	     -9.47858951	     -8.12273914	     57.06150043	     57.06150043	      5.45376074	      0.00000000	      0.00000000	    -18.46710547	      2.75383226	      5.42642565
      0.88333333	      7.22792882	     -1.77127992	      3.40420575	      1.00398433	      1.01595270	      0.20368157	     -7.83901385	      6.61533155	     -3.88259998	      5.30412171	      5.30412171	      2.06421242	      0.00000000	      0.00000000	     16.88988683	     -9.39422816	     -8.47954390	     55.31267518	     55.31267518	      5.21237450	      0.00000000	      0.00000000	    -18.54861920	      2.79989233	      5.52739496
      0.89166667	      7.26331665	     -1.61546228	      3.13759799	      1.01150216	      1.01609975	      0.20383212	     -8.60239784	      6.44910637	     -3.55121635	      4.88822739	      4.88822739	      2.21356588	      0.00000000	      0.00000000	     17.21715879	     -9.01664087	     -8.81429646	     53.36195373	     53.36195373	      4.89876684	      0.00000000	      0.00000000	    -18.69326591	      2.64892960	      5.64573048
      0.90000000	      7.06418762	     -1.62101247	      2.72118836	      1.01846577	      1.01576332	      0.20418443	     -9.09484944	      6.42599174	     -2.95384078	      4.38963525	      4.38963525	      2.28192066	      0.00000000	      0.00000000	     17.79200902	     -8.84677612	     -9.30709726	     51.30082755	     51.30082755	      4.60658644	      0.00000000	      0.00000000	    -18.64621417	      2.63416886	      5.92391777
      0.90833333	      6.81685245	     -1.72903151	      2.34298054	      1.02539262	      1.01517696	      0.20446873	     -9.51236224	      6.50894039	     -2.37508042	      3.91302673	      3.91302673	      2.36661779	      0.00000000	      0.00000000	     18.41961316	     -8.79022621	     -9.76082683	     49.18593147	     49.18593147	      4.22696749	      0.00000000	      0.00000000	    -18.55120225	      2.74881354	      6.20038941
      0.91666667	      6.55836519	     -1.87002824	      1.96167395	      1.03232800	      1.01446134	      0.20476173	     -9.89218761	      6.61843634	     -1.77698295	      3.50351388	      3.50351388	      2.50819375	      0.00000000	      0.00000000	     18.99336818	     -8.75383154	    -10.17670112	     46.96601152	     46.96601152	      3.86657071	      0.00000000	      0.00000000	    -18.44495584	      2.90572819	      6.46960442
      0.92500000	      6.30203450	     -2.12069978	      1.59863184	      1.03917693	      1.01363488	      0.20497947	    -10.24533117	      6.83933879	     -1.14249108	      3.14862281	      3.14862281	      2.65370759	      0.00000000	      0.00000000	     19.53089983	     -8.82169774	    -10.53316645	     44.65028859	     44.65028859	      3.48947428	      0.00000000	      0.00000000	    -18.35722375	      3.20160142	      6.73363356
      0.93333333	      6.03076596	     -2.32647137	      1.19902368	      1.04607827	      1.01272586	      0.20524165	    -10.62811747	      7.00854198	     -0.33021643	      2.79502121	      2.79502121	      2.92131199	      0.00000000	      0.00000000	     19.96798430	     -8.84634783	    -10.97215328	     42.15571092	     42.15571092	      3.16805609	      0.00000000	      0.00000000	    -18.26324275	      3.44418034	      7.02431608
      0.94166667	      6.56276894	     -2.18272434	      1.43721320	      1.05469467	      1.01265860	      0.20459700	    -11.51204632	      6.89935287	     -0.85022120	      3.50465459	      3.50465459	      3.93048061	      0.00000000	      0.00000000	     19.29024024	     -8.29095334	    -11.11820527	     39.25823119	     39.25823119	      2.82785728	      0.00000000	      0.00000000	    -18.84834048	      3.45234311	      6.65610292
